{
	"asset":{
		"generator":"Khronos glTF Blender I/O v5.1.19",
		"version":"2.0"
	},
	"extensionsUsed":[
		"KHR_materials_specular"
	],
	"scene":0,
	"scenes":[
		{
			"name":"Scene",
			"nodes":[
				13
			]
		}
	],
	"nodes":[
		{
			"mesh":0,
			"name":"Object_654"
		},
		{
			"children":[
				0
			],
			"name":"brake_pad_front_metal_Capiler_0_439"
		},
		{
			"mesh":1,
			"name":"Object_658"
		},
		{
			"children":[
				2
			],
			"name":"brake_pad_front_phong11_0_441"
		},
		{
			"mesh":2,
			"name":"Object_656"
		},
		{
			"children":[
				4
			],
			"name":"brake_pad_front_red_caliper_0_440"
		},
		{
			"children":[
				1,
				3,
				5
			],
			"name":"brake_pad_front_438"
		},
		{
			"children":[
				6
			],
			"name":"Object_3_3"
		},
		{
			"children":[
				7
			],
			"name":"RootNode_2"
		},
		{
			"children":[
				8
			],
			"name":"FINAL_MODEL_25.fbx_1",
			"rotation":[
				0.70710688829422,
				0,
				0,
				0.7071066498756409
			],
			"scale":[
				0.009999999776482582,
				0.010000000707805157,
				0.010000000707805157
			]
		},
		{
			"children":[
				9
			],
			"name":"Sketchfab_model_0",
			"rotation":[
				-0.70710688829422,
				0,
				0,
				0.7071066498756409
			]
		},
		{
			"children":[
				10
			],
			"name":"GLTF_SceneRootNode",
			"rotation":[
				0.70710688829422,
				0,
				0,
				0.7071066498756409
			]
		},
		{
			"children":[
				11
			],
			"name":"root"
		},
		{
			"children":[
				12
			],
			"name":"Sketchfab_model",
			"rotation":[
				-0.70710688829422,
				0,
				0,
				0.7071066498756409
			]
		}
	],
	"materials":[
		{
			"doubleSided":true,
			"name":"metal_Capiler",
			"occlusionTexture":{
				"index":0
			},
			"pbrMetallicRoughness":{
				"baseColorFactor":[
					0.03564079850912094,
					0.03564079850912094,
					0.03564079850912094,
					1
				],
				"metallicFactor":0.8822879791259766,
				"metallicRoughnessTexture":{
					"index":0
				},
				"roughnessFactor":0.2788580060005188
			}
		},
		{
			"alphaMode":"BLEND",
			"doubleSided":true,
			"extensions":{
				"KHR_materials_specular":{
					"specularFactor":0.3276199996471405
				}
			},
			"name":"phong11",
			"pbrMetallicRoughness":{
				"baseColorTexture":{
					"index":1
				},
				"metallicFactor":0.8030499815940857,
				"roughnessFactor":0.10573700070381165
			}
		},
		{
			"doubleSided":true,
			"extensions":{
				"KHR_materials_specular":{
					"specularFactor":0.3337149918079376
				}
			},
			"name":"red_caliper",
			"occlusionTexture":{
				"index":2
			},
			"pbrMetallicRoughness":{
				"baseColorFactor":[
					0.36366501450538635,
					0,
					0,
					1
				],
				"metallicFactor":0.5836210250854492,
				"metallicRoughnessTexture":{
					"index":2
				},
				"roughnessFactor":0.16914300620555878
			}
		}
	],
	"meshes":[
		{
			"name":"Object_211",
			"primitives":[
				{
					"attributes":{
						"POSITION":0,
						"NORMAL":1,
						"TEXCOORD_0":2,
						"TEXCOORD_1":3,
						"TEXCOORD_2":4,
						"TEXCOORD_3":5
					},
					"indices":6,
					"material":0
				}
			]
		},
		{
			"name":"Object_213",
			"primitives":[
				{
					"attributes":{
						"POSITION":7,
						"NORMAL":8,
						"TEXCOORD_0":9,
						"TEXCOORD_1":10,
						"TEXCOORD_2":11
					},
					"indices":12,
					"material":1
				}
			]
		},
		{
			"name":"Object_212",
			"primitives":[
				{
					"attributes":{
						"POSITION":13,
						"NORMAL":14,
						"TEXCOORD_0":15,
						"TEXCOORD_1":16,
						"TEXCOORD_2":17,
						"TEXCOORD_3":18
					},
					"indices":19,
					"material":2
				}
			]
		}
	],
	"textures":[
		{
			"sampler":0,
			"source":0
		},
		{
			"sampler":0,
			"source":1
		},
		{
			"sampler":0,
			"source":0
		}
	],
	"images":[
		{
			"mimeType":"image/jpeg",
			"name":"metal_Capiler_metallicRoughness",
			"uri":"brakes-textures/metal_Capiler_metallicRoughness.jpg"
		},
		{
			"mimeType":"image/png",
			"name":"phong11_baseColor",
			"uri":"brakes-textures/phong11_baseColor.png"
		}
	],
	"accessors":[
		{
			"bufferView":0,
			"componentType":5126,
			"count":3373,
			"max":[
				0.08815842866897583,
				0.08730214834213257,
				0.08439624309539795
			],
			"min":[
				-0.051265180110931396,
				-0.08153897523880005,
				-0.04023265838623047
			],
			"type":"VEC3"
		},
		{
			"bufferView":1,
			"componentType":5126,
			"count":3373,
			"type":"VEC3"
		},
		{
			"bufferView":2,
			"componentType":5126,
			"count":3373,
			"type":"VEC2"
		},
		{
			"bufferView":3,
			"componentType":5126,
			"count":3373,
			"type":"VEC2"
		},
		{
			"bufferView":4,
			"componentType":5126,
			"count":3373,
			"type":"VEC2"
		},
		{
			"bufferView":5,
			"componentType":5126,
			"count":3373,
			"type":"VEC2"
		},
		{
			"bufferView":6,
			"componentType":5123,
			"count":6852,
			"type":"SCALAR"
		},
		{
			"bufferView":7,
			"componentType":5126,
			"count":6,
			"max":[
				0.0013779997825622559,
				0.032475054264068604,
				0.014986753463745117
			],
			"min":[
				-0.001378178596496582,
				-0.032475173473358154,
				-0.014986753463745117
			],
			"type":"VEC3"
		},
		{
			"bufferView":8,
			"componentType":5126,
			"count":6,
			"type":"VEC3"
		},
		{
			"bufferView":9,
			"componentType":5126,
			"count":6,
			"type":"VEC2"
		},
		{
			"bufferView":10,
			"componentType":5126,
			"count":6,
			"type":"VEC2"
		},
		{
			"bufferView":11,
			"componentType":5126,
			"count":6,
			"type":"VEC2"
		},
		{
			"bufferView":12,
			"componentType":5123,
			"count":6,
			"type":"SCALAR"
		},
		{
			"bufferView":13,
			"componentType":5126,
			"count":3115,
			"max":[
				0.08389425277709961,
				0.1764013171195984,
				0.09383034706115723
			],
			"min":[
				-0.107086181640625,
				-0.16163060069084167,
				-0.05388069152832031
			],
			"type":"VEC3"
		},
		{
			"bufferView":14,
			"componentType":5126,
			"count":3115,
			"type":"VEC3"
		},
		{
			"bufferView":15,
			"componentType":5126,
			"count":3115,
			"type":"VEC2"
		},
		{
			"bufferView":16,
			"componentType":5126,
			"count":3115,
			"type":"VEC2"
		},
		{
			"bufferView":17,
			"componentType":5126,
			"count":3115,
			"type":"VEC2"
		},
		{
			"bufferView":18,
			"componentType":5126,
			"count":3115,
			"type":"VEC2"
		},
		{
			"bufferView":19,
			"componentType":5123,
			"count":13437,
			"type":"SCALAR"
		}
	],
	"bufferViews":[
		{
			"buffer":0,
			"byteLength":40476,
			"byteOffset":0,
			"target":34962
		},
		{
			"buffer":0,
			"byteLength":40476,
			"byteOffset":40476,
			"target":34962
		},
		{
			"buffer":0,
			"byteLength":26984,
			"byteOffset":80952,
			"target":34962
		},
		{
			"buffer":0,
			"byteLength":26984,
			"byteOffset":107936,
			"target":34962
		},
		{
			"buffer":0,
			"byteLength":26984,
			"byteOffset":134920,
			"target":34962
		},
		{
			"buffer":0,
			"byteLength":26984,
			"byteOffset":161904,
			"target":34962
		},
		{
			"buffer":0,
			"byteLength":13704,
			"byteOffset":188888,
			"target":34963
		},
		{
			"buffer":0,
			"byteLength":72,
			"byteOffset":202592,
			"target":34962
		},
		{
			"buffer":0,
			"byteLength":72,
			"byteOffset":202664,
			"target":34962
		},
		{
			"buffer":0,
			"byteLength":48,
			"byteOffset":202736,
			"target":34962
		},
		{
			"buffer":0,
			"byteLength":48,
			"byteOffset":202784,
			"target":34962
		},
		{
			"buffer":0,
			"byteLength":48,
			"byteOffset":202832,
			"target":34962
		},
		{
			"buffer":0,
			"byteLength":12,
			"byteOffset":202880,
			"target":34963
		},
		{
			"buffer":0,
			"byteLength":37380,
			"byteOffset":202892,
			"target":34962
		},
		{
			"buffer":0,
			"byteLength":37380,
			"byteOffset":240272,
			"target":34962
		},
		{
			"buffer":0,
			"byteLength":24920,
			"byteOffset":277652,
			"target":34962
		},
		{
			"buffer":0,
			"byteLength":24920,
			"byteOffset":302572,
			"target":34962
		},
		{
			"buffer":0,
			"byteLength":24920,
			"byteOffset":327492,
			"target":34962
		},
		{
			"buffer":0,
			"byteLength":24920,
			"byteOffset":352412,
			"target":34962
		},
		{
			"buffer":0,
			"byteLength":26874,
			"byteOffset":377332,
			"target":34963
		}
	],
	"samplers":[
		{
			"magFilter":9729,
			"minFilter":9987
		}
	],
	"buffers":[
		{
			"byteLength":404208,
			"uri":"brakes-front-right-1.bin"
		}
	]
}
