{
	"asset":{
		"generator":"Khronos glTF Blender I/O v5.1.19",
		"version":"2.0"
	},
	"extensionsUsed":[
		"KHR_materials_transmission",
		"KHR_materials_specular"
	],
	"scene":0,
	"scenes":[
		{
			"name":"Scene",
			"nodes":[
				14
			]
		}
	],
	"nodes":[
		{
			"mesh":0,
			"name":"Object_651"
		},
		{
			"children":[
				0
			],
			"name":"m4:body_Mesh_0_car_body_m4:car_emissive1_0_437"
		},
		{
			"mesh":1,
			"name":"Object_639"
		},
		{
			"children":[
				2
			],
			"name":"m4:body_Mesh_0_car_body_m4:car_glass1_0_431"
		},
		{
			"mesh":2,
			"name":"Object_643"
		},
		{
			"children":[
				4
			],
			"name":"m4:body_Mesh_0_car_body_m4:car_plast1_0_433"
		},
		{
			"children":[
				1,
				3,
				5
			],
			"name":"m4:body_Mesh_0_car_body_429"
		},
		{
			"children":[
				6
			],
			"name":"group1_411",
			"rotation":[
				-0.5,
				-0.5,
				-0.5,
				0.5
			]
		},
		{
			"children":[
				7
			],
			"name":"Object_3_3"
		},
		{
			"children":[
				8
			],
			"name":"RootNode_2"
		},
		{
			"children":[
				9
			],
			"name":"FINAL_MODEL_25.fbx_1",
			"rotation":[
				0.70710688829422,
				0,
				0,
				0.7071066498756409
			],
			"scale":[
				0.009999999776482582,
				0.010000000707805157,
				0.010000000707805157
			]
		},
		{
			"children":[
				10
			],
			"name":"Sketchfab_model_0",
			"rotation":[
				-0.70710688829422,
				0,
				0,
				0.7071066498756409
			]
		},
		{
			"children":[
				11
			],
			"name":"GLTF_SceneRootNode",
			"rotation":[
				0.70710688829422,
				0,
				0,
				0.7071066498756409
			]
		},
		{
			"children":[
				12
			],
			"name":"root"
		},
		{
			"children":[
				13
			],
			"name":"Sketchfab_model",
			"rotation":[
				-0.70710688829422,
				0,
				0,
				0.7071066498756409
			]
		}
	],
	"materials":[
		{
			"doubleSided":true,
			"emissiveFactor":[
				1,
				1,
				1
			],
			"emissiveTexture":{
				"index":0
			},
			"name":"m4car_emissive1",
			"pbrMetallicRoughness":{
				"baseColorTexture":{
					"index":1
				},
				"roughnessFactor":0
			}
		},
		{
			"alphaMode":"BLEND",
			"doubleSided":true,
			"extensions":{
				"KHR_materials_transmission":{
					"transmissionFactor":1,
					"transmissionTexture":{
						"index":2,
						"texCoord":1
					}
				}
			},
			"name":"m4car_glass1",
			"occlusionTexture":{
				"index":3
			},
			"pbrMetallicRoughness":{
				"baseColorTexture":{
					"index":4
				},
				"metallicFactor":0,
				"metallicRoughnessTexture":{
					"index":3
				},
				"roughnessFactor":0
			}
		},
		{
			"doubleSided":true,
			"extensions":{
				"KHR_materials_specular":{
					"specularFactor":0.15695300698280334
				}
			},
			"name":"m4car_plast1",
			"normalTexture":{
				"index":5
			},
			"pbrMetallicRoughness":{
				"baseColorTexture":{
					"index":6
				},
				"metallicRoughnessTexture":{
					"index":7
				},
				"roughnessFactor":0.0960002988576889
			}
		}
	],
	"meshes":[
		{
			"name":"Object_210",
			"primitives":[
				{
					"attributes":{
						"POSITION":0,
						"NORMAL":1,
						"TEXCOORD_0":2,
						"TEXCOORD_1":3
					},
					"indices":4,
					"material":0
				}
			]
		},
		{
			"name":"Object_204",
			"primitives":[
				{
					"attributes":{
						"POSITION":5,
						"NORMAL":6,
						"TEXCOORD_0":7,
						"TEXCOORD_1":8,
						"TEXCOORD_2":9,
						"TEXCOORD_3":10,
						"TEXCOORD_4":11,
						"TEXCOORD_5":12
					},
					"indices":13,
					"material":1
				}
			]
		},
		{
			"name":"Object_206",
			"primitives":[
				{
					"attributes":{
						"POSITION":14,
						"NORMAL":15,
						"TEXCOORD_0":16,
						"TEXCOORD_1":17,
						"TEXCOORD_2":18,
						"TEXCOORD_3":19,
						"TEXCOORD_4":20
					},
					"indices":21,
					"material":2
				}
			]
		}
	],
	"textures":[
		{
			"sampler":0,
			"source":0
		},
		{
			"sampler":0,
			"source":1
		},
		{
			"sampler":0,
			"source":2
		},
		{
			"sampler":0,
			"source":3
		},
		{
			"sampler":0,
			"source":4
		},
		{
			"sampler":0,
			"source":5
		},
		{
			"sampler":0,
			"source":6
		},
		{
			"sampler":0,
			"source":7
		}
	],
	"images":[
		{
			"mimeType":"image/png",
			"name":"m4car_emissive1_emissive",
			"uri":"headlight-textures/m4car_emissive1_emissive.png"
		},
		{
			"mimeType":"image/png",
			"name":"m4car_emissive1_baseColor",
			"uri":"headlight-textures/m4car_emissive1_baseColor.png"
		},
		{
			"mimeType":"image/png",
			"name":"m4car_glass1_transmission",
			"uri":"headlight-textures/m4car_glass1_transmission.png"
		},
		{
			"mimeType":"image/png",
			"name":"m4car_glass1_metallicRoughness",
			"uri":"headlight-textures/m4car_glass1_metallicRoughness.png"
		},
		{
			"mimeType":"image/png",
			"name":"m4car_glass1_baseColor",
			"uri":"headlight-textures/m4car_glass1_baseColor.png"
		},
		{
			"mimeType":"image/png",
			"name":"m4car_plast1_normal",
			"uri":"headlight-textures/m4car_plast1_normal.png"
		},
		{
			"mimeType":"image/png",
			"name":"m4car_plast1_baseColor",
			"uri":"headlight-textures/m4car_plast1_baseColor.png"
		},
		{
			"mimeType":"image/png",
			"name":"m4car_plast1_metallicRoughness",
			"uri":"headlight-textures/m4car_plast1_metallicRoughness.png"
		}
	],
	"accessors":[
		{
			"bufferView":0,
			"componentType":5126,
			"count":44,
			"max":[
				0.0936589241027832,
				0.12895911931991577,
				0.05597689747810364
			],
			"min":[
				-0.07937908172607422,
				-0.12159287929534912,
				-0.054917111992836
			],
			"type":"VEC3"
		},
		{
			"bufferView":1,
			"componentType":5126,
			"count":44,
			"type":"VEC3"
		},
		{
			"bufferView":2,
			"componentType":5126,
			"count":44,
			"type":"VEC2"
		},
		{
			"bufferView":3,
			"componentType":5126,
			"count":44,
			"type":"VEC2"
		},
		{
			"bufferView":4,
			"componentType":5123,
			"count":150,
			"type":"SCALAR"
		},
		{
			"bufferView":5,
			"componentType":5126,
			"count":77,
			"max":[
				0.1889796257019043,
				0.18905800580978394,
				0.06073480844497681
			],
			"min":[
				-0.26820147037506104,
				-0.2786480188369751,
				-0.09292519092559814
			],
			"type":"VEC3"
		},
		{
			"bufferView":6,
			"componentType":5126,
			"count":77,
			"type":"VEC3"
		},
		{
			"bufferView":7,
			"componentType":5126,
			"count":77,
			"type":"VEC2"
		},
		{
			"bufferView":8,
			"componentType":5126,
			"count":77,
			"type":"VEC2"
		},
		{
			"bufferView":9,
			"componentType":5126,
			"count":77,
			"type":"VEC2"
		},
		{
			"bufferView":10,
			"componentType":5126,
			"count":77,
			"type":"VEC2"
		},
		{
			"bufferView":11,
			"componentType":5126,
			"count":77,
			"type":"VEC2"
		},
		{
			"bufferView":12,
			"componentType":5126,
			"count":77,
			"type":"VEC2"
		},
		{
			"bufferView":13,
			"componentType":5123,
			"count":357,
			"type":"SCALAR"
		},
		{
			"bufferView":14,
			"componentType":5126,
			"count":1234,
			"max":[
				0.24747037887573242,
				0.26383769512176514,
				0.10359896719455719
			],
			"min":[
				-0.2664346694946289,
				-0.28600528836250305,
				-0.10958702862262726
			],
			"type":"VEC3"
		},
		{
			"bufferView":15,
			"componentType":5126,
			"count":1234,
			"type":"VEC3"
		},
		{
			"bufferView":16,
			"componentType":5126,
			"count":1234,
			"type":"VEC2"
		},
		{
			"bufferView":17,
			"componentType":5126,
			"count":1234,
			"type":"VEC2"
		},
		{
			"bufferView":18,
			"componentType":5126,
			"count":1234,
			"type":"VEC2"
		},
		{
			"bufferView":19,
			"componentType":5126,
			"count":1234,
			"type":"VEC2"
		},
		{
			"bufferView":20,
			"componentType":5126,
			"count":1234,
			"type":"VEC2"
		},
		{
			"bufferView":21,
			"componentType":5123,
			"count":2829,
			"type":"SCALAR"
		}
	],
	"bufferViews":[
		{
			"buffer":0,
			"byteLength":528,
			"byteOffset":0,
			"target":34962
		},
		{
			"buffer":0,
			"byteLength":528,
			"byteOffset":528,
			"target":34962
		},
		{
			"buffer":0,
			"byteLength":352,
			"byteOffset":1056,
			"target":34962
		},
		{
			"buffer":0,
			"byteLength":352,
			"byteOffset":1408,
			"target":34962
		},
		{
			"buffer":0,
			"byteLength":300,
			"byteOffset":1760,
			"target":34963
		},
		{
			"buffer":0,
			"byteLength":924,
			"byteOffset":2060,
			"target":34962
		},
		{
			"buffer":0,
			"byteLength":924,
			"byteOffset":2984,
			"target":34962
		},
		{
			"buffer":0,
			"byteLength":616,
			"byteOffset":3908,
			"target":34962
		},
		{
			"buffer":0,
			"byteLength":616,
			"byteOffset":4524,
			"target":34962
		},
		{
			"buffer":0,
			"byteLength":616,
			"byteOffset":5140,
			"target":34962
		},
		{
			"buffer":0,
			"byteLength":616,
			"byteOffset":5756,
			"target":34962
		},
		{
			"buffer":0,
			"byteLength":616,
			"byteOffset":6372,
			"target":34962
		},
		{
			"buffer":0,
			"byteLength":616,
			"byteOffset":6988,
			"target":34962
		},
		{
			"buffer":0,
			"byteLength":714,
			"byteOffset":7604,
			"target":34963
		},
		{
			"buffer":0,
			"byteLength":14808,
			"byteOffset":8320,
			"target":34962
		},
		{
			"buffer":0,
			"byteLength":14808,
			"byteOffset":23128,
			"target":34962
		},
		{
			"buffer":0,
			"byteLength":9872,
			"byteOffset":37936,
			"target":34962
		},
		{
			"buffer":0,
			"byteLength":9872,
			"byteOffset":47808,
			"target":34962
		},
		{
			"buffer":0,
			"byteLength":9872,
			"byteOffset":57680,
			"target":34962
		},
		{
			"buffer":0,
			"byteLength":9872,
			"byteOffset":67552,
			"target":34962
		},
		{
			"buffer":0,
			"byteLength":9872,
			"byteOffset":77424,
			"target":34962
		},
		{
			"buffer":0,
			"byteLength":5658,
			"byteOffset":87296,
			"target":34963
		}
	],
	"samplers":[
		{
			"magFilter":9729,
			"minFilter":9987
		}
	],
	"buffers":[
		{
			"byteLength":92956,
			"uri":"headlight-front-right-1.bin"
		}
	]
}
