{
	"asset":{
		"generator":"Khronos glTF Blender I/O v5.1.19",
		"version":"2.0"
	},
	"extensionsUsed":[
		"KHR_materials_specular"
	],
	"scene":0,
	"scenes":[
		{
			"name":"Scene",
			"nodes":[
				51
			]
		}
	],
	"nodes":[
		{
			"mesh":0,
			"name":"Object_582"
		},
		{
			"children":[
				0
			],
			"name":"b:polySurface125_b:_TNRRims_125A20NaTireBlur_Material1_0_396"
		},
		{
			"children":[
				1
			],
			"name":"b:polySurface125_395"
		},
		{
			"mesh":1,
			"name":"Object_585"
		},
		{
			"children":[
				3
			],
			"name":"b:polySurface126_b:_TNRRims_125A20NaTireBlur_Material1_0_398"
		},
		{
			"children":[
				4
			],
			"name":"b:polySurface126_397"
		},
		{
			"mesh":2,
			"name":"Object_588"
		},
		{
			"children":[
				6
			],
			"name":"b:polySurface127_b:_TNRRims_125A20NaTireBlur_Material1_0_400"
		},
		{
			"children":[
				7
			],
			"name":"b:polySurface127_399"
		},
		{
			"mesh":3,
			"name":"Object_591"
		},
		{
			"children":[
				9
			],
			"name":"b:polySurface128_b:_TNRRims_125A20NaTireBlur_Material1_0_402"
		},
		{
			"children":[
				10
			],
			"name":"b:polySurface128_401"
		},
		{
			"mesh":4,
			"name":"Object_594"
		},
		{
			"children":[
				12
			],
			"name":"b:polySurface129_b:_TNRRims_125A20NaTireBlur_Material1_0_404"
		},
		{
			"children":[
				13
			],
			"name":"b:polySurface129_403"
		},
		{
			"mesh":5,
			"name":"Object_597"
		},
		{
			"children":[
				15
			],
			"name":"b:polySurface130_b:_TNRRims_125A20NaTireBlur_Material1_0_406"
		},
		{
			"children":[
				16
			],
			"name":"b:polySurface130_405"
		},
		{
			"mesh":6,
			"name":"Object_603"
		},
		{
			"children":[
				18
			],
			"name":"b:polySurface132_b:_TNRRims_125A20NaTireBlur_Material1_0_410"
		},
		{
			"children":[
				19
			],
			"name":"b:polySurface132_409"
		},
		{
			"mesh":7,
			"name":"Object_531"
		},
		{
			"children":[
				21
			],
			"name":"b:polySurface268_b:_TNRRims_125A20NaBrakeDisc_ForgedDrilled_Material1_0_362"
		},
		{
			"children":[
				22
			],
			"name":"b:polySurface268_361"
		},
		{
			"name":"b:polySurface279_b:_TNRRims_125A20NaBrakeDisc_ForgedDrilled_Material1_0_384"
		},
		{
			"children":[
				24
			],
			"name":"b:polySurface279_383"
		},
		{
			"name":"b:polySurface281_b:_TNRRims_125A20NaBrakeDisc_ForgedDrilled_Material1_0_388"
		},
		{
			"children":[
				26
			],
			"name":"b:polySurface281_387"
		},
		{
			"children":[
				23,
				25,
				27
			],
			"name":"BrakeDisc Rear R_314",
			"scale":[
				1.1277012825012207,
				1.1277012825012207,
				1.1277012825012207
			]
		},
		{
			"mesh":8,
			"name":"Object_579"
		},
		{
			"children":[
				29
			],
			"name":"rim_072_in_Mesh_2_Rim_072_Garage1_rim:Rim_072_Garage1_0_394"
		},
		{
			"children":[
				30
			],
			"name":"rim_072_in_Mesh_2_Rim_072_Garage1_393",
			"rotation":[
				0,
				-1,
				0,
				1.277687261648844e-16
			],
			"scale":[
				0.9018144011497498,
				0.913550615310669,
				0.913547158241272
			]
		},
		{
			"mesh":9,
			"name":"Object_576"
		},
		{
			"children":[
				32
			],
			"name":"rim_072_out_Mesh_3_Rim_072_Garage1_rim:Rim_072_Garage1_0_392"
		},
		{
			"children":[
				33
			],
			"name":"rim_072_out_Mesh_3_Rim_072_Garage1_391",
			"rotation":[
				0,
				-1,
				0,
				1.277687261648844e-16
			],
			"scale":[
				0.9018144011497498,
				0.913550615310669,
				0.913547158241272
			]
		},
		{
			"children":[
				28,
				31,
				34
			],
			"name":"Rim Rear R_313"
		},
		{
			"children":[
				2,
				5,
				8,
				11,
				14,
				17,
				20,
				35
			],
			"name":"Tire Rear R_312"
		},
		{
			"children":[
				36
			],
			"name":"3DWheel Rear R_013_311"
		},
		{
			"children":[
				37
			],
			"name":"b:transform7_012_310",
			"scale":[
				1.0165671110153198,
				1.0293349027633667,
				1.0293388366699219
			]
		},
		{
			"children":[
				38
			],
			"name":"Calliper Rear R_011_309",
			"rotation":[
				0.008726668544113636,
				0.9999619126319885,
				0,
				4.370307138401586e-08
			],
			"scale":[
				0.9837065935134888,
				0.9714975357055664,
				0.9714972376823425
			],
			"translation":[
				-0.006235658656805754,
				0.35195639729499817,
				0.003200649982318282
			]
		},
		{
			"children":[
				39
			],
			"name":"Calliper20Na(Clone)_01_6"
		},
		{
			"children":[
				40
			],
			"name":"Wheel1A_Alpha_00_5"
		},
		{
			"children":[
				41
			],
			"name":"_rootJoint_4"
		},
		{
			"name":"brake_pad_front_metal_Capiler_0_439"
		},
		{
			"children":[
				43
			],
			"name":"brake_pad_front_438",
			"translation":[
				0,
				-0.2239999920129776,
				2.4768152236938477
			]
		},
		{
			"children":[
				42,
				44
			],
			"name":"Object_3_3"
		},
		{
			"children":[
				45
			],
			"name":"RootNode_2"
		},
		{
			"children":[
				46
			],
			"name":"FINAL_MODEL_25.fbx_1",
			"rotation":[
				0.70710688829422,
				0,
				0,
				0.7071066498756409
			],
			"scale":[
				0.009999999776482582,
				0.010000000707805157,
				0.010000000707805157
			]
		},
		{
			"children":[
				47
			],
			"name":"Sketchfab_model_0",
			"rotation":[
				-0.70710688829422,
				0,
				0,
				0.7071066498756409
			]
		},
		{
			"children":[
				48
			],
			"name":"GLTF_SceneRootNode",
			"rotation":[
				0.70710688829422,
				0,
				0,
				0.7071066498756409
			]
		},
		{
			"children":[
				49
			],
			"name":"root"
		},
		{
			"children":[
				50
			],
			"name":"Sketchfab_model",
			"rotation":[
				-0.70710688829422,
				0,
				0,
				0.7071066498756409
			],
			"translation":[
				2.0971461708541028e-05,
				0,
				0
			]
		}
	],
	"materials":[
		{
			"doubleSided":true,
			"extensions":{
				"KHR_materials_specular":{
					"specularFactor":0.3702870011329651
				}
			},
			"name":"b_TNRRims_125A20NaTireBlur_Material1",
			"normalTexture":{
				"index":0
			},
			"pbrMetallicRoughness":{
				"baseColorTexture":{
					"index":1
				},
				"metallicFactor":0.742097020149231,
				"roughnessFactor":0.30933400988578796
			}
		},
		{
			"doubleSided":true,
			"extensions":{
				"KHR_materials_specular":{
					"specularFactor":0.3276199996471405
				}
			},
			"name":"b_TNRRims_125A20NaBrakeDisc_ForgedDrilled_Material1",
			"normalTexture":{
				"index":2
			},
			"pbrMetallicRoughness":{
				"baseColorTexture":{
					"index":3
				},
				"metallicFactor":0.7116209864616394,
				"roughnessFactor":0.3215250074863434
			}
		},
		{
			"doubleSided":true,
			"extensions":{
				"KHR_materials_specular":{
					"specularFactor":0.26057198643684387
				}
			},
			"name":"rimRim_072_Garage1",
			"normalTexture":{
				"index":4
			},
			"pbrMetallicRoughness":{
				"baseColorTexture":{
					"index":5
				},
				"metallicRoughnessTexture":{
					"index":6
				},
				"roughnessFactor":0.2910490036010742
			}
		}
	],
	"meshes":[
		{
			"name":"Object_182",
			"primitives":[
				{
					"attributes":{
						"POSITION":0,
						"NORMAL":1,
						"TEXCOORD_0":2,
						"TEXCOORD_1":3,
						"TEXCOORD_2":4
					},
					"indices":5,
					"material":0
				}
			]
		},
		{
			"name":"Object_183",
			"primitives":[
				{
					"attributes":{
						"POSITION":6,
						"NORMAL":7,
						"TEXCOORD_0":8,
						"TEXCOORD_1":9,
						"TEXCOORD_2":10
					},
					"indices":5,
					"material":0
				}
			]
		},
		{
			"name":"Object_184",
			"primitives":[
				{
					"attributes":{
						"POSITION":11,
						"NORMAL":12,
						"TEXCOORD_0":13,
						"TEXCOORD_1":14,
						"TEXCOORD_2":15
					},
					"indices":5,
					"material":0
				}
			]
		},
		{
			"name":"Object_185",
			"primitives":[
				{
					"attributes":{
						"POSITION":16,
						"NORMAL":17,
						"TEXCOORD_0":18,
						"TEXCOORD_1":19,
						"TEXCOORD_2":20
					},
					"indices":5,
					"material":0
				}
			]
		},
		{
			"name":"Object_186",
			"primitives":[
				{
					"attributes":{
						"POSITION":21,
						"NORMAL":22,
						"TEXCOORD_0":23,
						"TEXCOORD_1":24,
						"TEXCOORD_2":25
					},
					"indices":5,
					"material":0
				}
			]
		},
		{
			"name":"Object_187",
			"primitives":[
				{
					"attributes":{
						"POSITION":26,
						"NORMAL":27,
						"TEXCOORD_0":28,
						"TEXCOORD_1":29,
						"TEXCOORD_2":30
					},
					"indices":31,
					"material":0
				}
			]
		},
		{
			"name":"Object_189",
			"primitives":[
				{
					"attributes":{
						"POSITION":32,
						"NORMAL":33,
						"TEXCOORD_0":34,
						"TEXCOORD_1":35,
						"TEXCOORD_2":36
					},
					"indices":37,
					"material":0
				}
			]
		},
		{
			"name":"Object_165",
			"primitives":[
				{
					"attributes":{
						"POSITION":38,
						"NORMAL":39,
						"TEXCOORD_0":40,
						"TEXCOORD_1":41,
						"TEXCOORD_2":42
					},
					"indices":43,
					"material":1
				}
			]
		},
		{
			"name":"Object_181",
			"primitives":[
				{
					"attributes":{
						"POSITION":44,
						"NORMAL":45,
						"TEXCOORD_0":46,
						"TEXCOORD_1":47,
						"TEXCOORD_2":48,
						"TEXCOORD_3":49,
						"TEXCOORD_4":50
					},
					"indices":51,
					"material":2
				}
			]
		},
		{
			"name":"Object_180",
			"primitives":[
				{
					"attributes":{
						"POSITION":52,
						"NORMAL":53,
						"TEXCOORD_0":54,
						"TEXCOORD_1":55,
						"TEXCOORD_2":56,
						"TEXCOORD_3":57,
						"TEXCOORD_4":58
					},
					"indices":59,
					"material":2
				}
			]
		}
	],
	"textures":[
		{
			"sampler":0,
			"source":0
		},
		{
			"sampler":0,
			"source":1
		},
		{
			"sampler":0,
			"source":2
		},
		{
			"sampler":0,
			"source":3
		},
		{
			"sampler":0,
			"source":4
		},
		{
			"sampler":0,
			"source":5
		},
		{
			"sampler":0,
			"source":6
		}
	],
	"images":[
		{
			"mimeType":"image/jpeg",
			"name":"Image_6",
			"uri":"textures7/Image_6.jpg"
		},
		{
			"mimeType":"image/jpeg",
			"name":"Image_5",
			"uri":"textures7/Image_5.jpg"
		},
		{
			"mimeType":"image/jpeg",
			"name":"Image_1",
			"uri":"textures7/Image_1.jpg"
		},
		{
			"mimeType":"image/jpeg",
			"name":"Image_0",
			"uri":"textures7/Image_0.jpg"
		},
		{
			"mimeType":"image/jpeg",
			"name":"Image_4",
			"uri":"textures7/Image_4.jpg"
		},
		{
			"mimeType":"image/jpeg",
			"name":"Image_2",
			"uri":"textures7/Image_2.jpg"
		},
		{
			"mimeType":"image/jpeg",
			"name":"Image_3",
			"uri":"textures7/Image_3.jpg"
		}
	],
	"accessors":[
		{
			"bufferView":0,
			"componentType":5126,
			"count":88,
			"max":[
				0.13114699721336365,
				0.2813740074634552,
				0.3471109867095947
			],
			"min":[
				-0.138047993183136,
				-0.10747499763965607,
				0.19247600436210632
			],
			"type":"VEC3"
		},
		{
			"bufferView":1,
			"componentType":5126,
			"count":88,
			"type":"VEC3"
		},
		{
			"bufferView":2,
			"componentType":5126,
			"count":88,
			"type":"VEC2"
		},
		{
			"bufferView":3,
			"componentType":5126,
			"count":88,
			"type":"VEC2"
		},
		{
			"bufferView":4,
			"componentType":5126,
			"count":88,
			"type":"VEC2"
		},
		{
			"bufferView":5,
			"componentType":5123,
			"count":420,
			"type":"SCALAR"
		},
		{
			"bufferView":6,
			"componentType":5126,
			"count":88,
			"max":[
				0.13114699721336365,
				-0.10119099915027618,
				0.3307749927043915
			],
			"min":[
				-0.138047993183136,
				-0.3477970063686371,
				0
			],
			"type":"VEC3"
		},
		{
			"bufferView":7,
			"componentType":5126,
			"count":88,
			"type":"VEC3"
		},
		{
			"bufferView":8,
			"componentType":5126,
			"count":88,
			"type":"VEC2"
		},
		{
			"bufferView":9,
			"componentType":5126,
			"count":88,
			"type":"VEC2"
		},
		{
			"bufferView":10,
			"componentType":5126,
			"count":88,
			"type":"VEC2"
		},
		{
			"bufferView":11,
			"componentType":5126,
			"count":88,
			"max":[
				0.13114699721336365,
				-0.10119099915027618,
				0
			],
			"min":[
				-0.138047993183136,
				-0.3477970063686371,
				-0.3307749927043915
			],
			"type":"VEC3"
		},
		{
			"bufferView":12,
			"componentType":5126,
			"count":88,
			"type":"VEC3"
		},
		{
			"bufferView":13,
			"componentType":5126,
			"count":88,
			"type":"VEC2"
		},
		{
			"bufferView":14,
			"componentType":5126,
			"count":88,
			"type":"VEC2"
		},
		{
			"bufferView":15,
			"componentType":5126,
			"count":88,
			"type":"VEC2"
		},
		{
			"bufferView":16,
			"componentType":5126,
			"count":88,
			"max":[
				0.13114699721336365,
				0.3477970063686371,
				0.2044299989938736
			],
			"min":[
				-0.138047993183136,
				0.26492100954055786,
				-0.2044299989938736
			],
			"type":"VEC3"
		},
		{
			"bufferView":17,
			"componentType":5126,
			"count":88,
			"type":"VEC3"
		},
		{
			"bufferView":18,
			"componentType":5126,
			"count":88,
			"type":"VEC2"
		},
		{
			"bufferView":19,
			"componentType":5126,
			"count":88,
			"type":"VEC2"
		},
		{
			"bufferView":20,
			"componentType":5126,
			"count":88,
			"type":"VEC2"
		},
		{
			"bufferView":21,
			"componentType":5126,
			"count":88,
			"max":[
				0.13114699721336365,
				0.2813740074634552,
				-0.19247600436210632
			],
			"min":[
				-0.138047993183136,
				-0.10747499763965607,
				-0.3471109867095947
			],
			"type":"VEC3"
		},
		{
			"bufferView":22,
			"componentType":5126,
			"count":88,
			"type":"VEC3"
		},
		{
			"bufferView":23,
			"componentType":5126,
			"count":88,
			"type":"VEC2"
		},
		{
			"bufferView":24,
			"componentType":5126,
			"count":88,
			"type":"VEC2"
		},
		{
			"bufferView":25,
			"componentType":5126,
			"count":88,
			"type":"VEC2"
		},
		{
			"bufferView":26,
			"componentType":5126,
			"count":140,
			"max":[
				-0.13334999978542328,
				0.32745999097824097,
				0.3268139958381653
			],
			"min":[
				-0.14759700000286102,
				-0.32745999097824097,
				-0.3268139958381653
			],
			"type":"VEC3"
		},
		{
			"bufferView":27,
			"componentType":5126,
			"count":140,
			"type":"VEC3"
		},
		{
			"bufferView":28,
			"componentType":5126,
			"count":140,
			"type":"VEC2"
		},
		{
			"bufferView":29,
			"componentType":5126,
			"count":140,
			"type":"VEC2"
		},
		{
			"bufferView":30,
			"componentType":5126,
			"count":140,
			"type":"VEC2"
		},
		{
			"bufferView":31,
			"componentType":5123,
			"count":600,
			"type":"SCALAR"
		},
		{
			"bufferView":32,
			"componentType":5126,
			"count":200,
			"max":[
				0.14438599348068237,
				0.3321070075035095,
				0.33145201206207275
			],
			"min":[
				0.13114699721336365,
				-0.3321070075035095,
				-0.33145201206207275
			],
			"type":"VEC3"
		},
		{
			"bufferView":33,
			"componentType":5126,
			"count":200,
			"type":"VEC3"
		},
		{
			"bufferView":34,
			"componentType":5126,
			"count":200,
			"type":"VEC2"
		},
		{
			"bufferView":35,
			"componentType":5126,
			"count":200,
			"type":"VEC2"
		},
		{
			"bufferView":36,
			"componentType":5126,
			"count":200,
			"type":"VEC2"
		},
		{
			"bufferView":37,
			"componentType":5123,
			"count":900,
			"type":"SCALAR"
		},
		{
			"bufferView":38,
			"componentType":5126,
			"count":10,
			"max":[
				-0.0368649996817112,
				-0.15491800010204315,
				0.027199000120162964
			],
			"min":[
				-0.06002400070428848,
				-0.17386899888515472,
				-0.07893499732017517
			],
			"type":"VEC3"
		},
		{
			"bufferView":39,
			"componentType":5126,
			"count":10,
			"type":"VEC3"
		},
		{
			"bufferView":40,
			"componentType":5126,
			"count":10,
			"type":"VEC2"
		},
		{
			"bufferView":41,
			"componentType":5126,
			"count":10,
			"type":"VEC2"
		},
		{
			"bufferView":42,
			"componentType":5126,
			"count":10,
			"type":"VEC2"
		},
		{
			"bufferView":43,
			"componentType":5123,
			"count":24,
			"type":"SCALAR"
		},
		{
			"bufferView":44,
			"componentType":5126,
			"count":4412,
			"max":[
				-0.03722500056028366,
				0.3069779872894287,
				0.30721399188041687
			],
			"min":[
				-0.15238699316978455,
				-0.3073180019855499,
				-0.30726000666618347
			],
			"type":"VEC3"
		},
		{
			"bufferView":45,
			"componentType":5126,
			"count":4412,
			"type":"VEC3"
		},
		{
			"bufferView":46,
			"componentType":5126,
			"count":4412,
			"type":"VEC2"
		},
		{
			"bufferView":47,
			"componentType":5126,
			"count":4412,
			"type":"VEC2"
		},
		{
			"bufferView":48,
			"componentType":5126,
			"count":4412,
			"type":"VEC2"
		},
		{
			"bufferView":49,
			"componentType":5126,
			"count":4412,
			"type":"VEC2"
		},
		{
			"bufferView":50,
			"componentType":5126,
			"count":4412,
			"type":"VEC2"
		},
		{
			"bufferView":51,
			"componentType":5123,
			"count":15222,
			"type":"SCALAR"
		},
		{
			"bufferView":52,
			"componentType":5126,
			"count":692,
			"max":[
				0.15759700536727905,
				0.3202129900455475,
				0.31920599937438965
			],
			"min":[
				-0.12860099971294403,
				-0.3211430013179779,
				-0.31917598843574524
			],
			"type":"VEC3"
		},
		{
			"bufferView":53,
			"componentType":5126,
			"count":692,
			"type":"VEC3"
		},
		{
			"bufferView":54,
			"componentType":5126,
			"count":692,
			"type":"VEC2"
		},
		{
			"bufferView":55,
			"componentType":5126,
			"count":692,
			"type":"VEC2"
		},
		{
			"bufferView":56,
			"componentType":5126,
			"count":692,
			"type":"VEC2"
		},
		{
			"bufferView":57,
			"componentType":5126,
			"count":692,
			"type":"VEC2"
		},
		{
			"bufferView":58,
			"componentType":5126,
			"count":692,
			"type":"VEC2"
		},
		{
			"bufferView":59,
			"componentType":5123,
			"count":3285,
			"type":"SCALAR"
		}
	],
	"bufferViews":[
		{
			"buffer":0,
			"byteLength":1056,
			"byteOffset":0,
			"target":34962
		},
		{
			"buffer":0,
			"byteLength":1056,
			"byteOffset":1056,
			"target":34962
		},
		{
			"buffer":0,
			"byteLength":704,
			"byteOffset":2112,
			"target":34962
		},
		{
			"buffer":0,
			"byteLength":704,
			"byteOffset":2816,
			"target":34962
		},
		{
			"buffer":0,
			"byteLength":704,
			"byteOffset":3520,
			"target":34962
		},
		{
			"buffer":0,
			"byteLength":840,
			"byteOffset":4224,
			"target":34963
		},
		{
			"buffer":0,
			"byteLength":1056,
			"byteOffset":5064,
			"target":34962
		},
		{
			"buffer":0,
			"byteLength":1056,
			"byteOffset":6120,
			"target":34962
		},
		{
			"buffer":0,
			"byteLength":704,
			"byteOffset":7176,
			"target":34962
		},
		{
			"buffer":0,
			"byteLength":704,
			"byteOffset":7880,
			"target":34962
		},
		{
			"buffer":0,
			"byteLength":704,
			"byteOffset":8584,
			"target":34962
		},
		{
			"buffer":0,
			"byteLength":1056,
			"byteOffset":9288,
			"target":34962
		},
		{
			"buffer":0,
			"byteLength":1056,
			"byteOffset":10344,
			"target":34962
		},
		{
			"buffer":0,
			"byteLength":704,
			"byteOffset":11400,
			"target":34962
		},
		{
			"buffer":0,
			"byteLength":704,
			"byteOffset":12104,
			"target":34962
		},
		{
			"buffer":0,
			"byteLength":704,
			"byteOffset":12808,
			"target":34962
		},
		{
			"buffer":0,
			"byteLength":1056,
			"byteOffset":13512,
			"target":34962
		},
		{
			"buffer":0,
			"byteLength":1056,
			"byteOffset":14568,
			"target":34962
		},
		{
			"buffer":0,
			"byteLength":704,
			"byteOffset":15624,
			"target":34962
		},
		{
			"buffer":0,
			"byteLength":704,
			"byteOffset":16328,
			"target":34962
		},
		{
			"buffer":0,
			"byteLength":704,
			"byteOffset":17032,
			"target":34962
		},
		{
			"buffer":0,
			"byteLength":1056,
			"byteOffset":17736,
			"target":34962
		},
		{
			"buffer":0,
			"byteLength":1056,
			"byteOffset":18792,
			"target":34962
		},
		{
			"buffer":0,
			"byteLength":704,
			"byteOffset":19848,
			"target":34962
		},
		{
			"buffer":0,
			"byteLength":704,
			"byteOffset":20552,
			"target":34962
		},
		{
			"buffer":0,
			"byteLength":704,
			"byteOffset":21256,
			"target":34962
		},
		{
			"buffer":0,
			"byteLength":1680,
			"byteOffset":21960,
			"target":34962
		},
		{
			"buffer":0,
			"byteLength":1680,
			"byteOffset":23640,
			"target":34962
		},
		{
			"buffer":0,
			"byteLength":1120,
			"byteOffset":25320,
			"target":34962
		},
		{
			"buffer":0,
			"byteLength":1120,
			"byteOffset":26440,
			"target":34962
		},
		{
			"buffer":0,
			"byteLength":1120,
			"byteOffset":27560,
			"target":34962
		},
		{
			"buffer":0,
			"byteLength":1200,
			"byteOffset":28680,
			"target":34963
		},
		{
			"buffer":0,
			"byteLength":2400,
			"byteOffset":29880,
			"target":34962
		},
		{
			"buffer":0,
			"byteLength":2400,
			"byteOffset":32280,
			"target":34962
		},
		{
			"buffer":0,
			"byteLength":1600,
			"byteOffset":34680,
			"target":34962
		},
		{
			"buffer":0,
			"byteLength":1600,
			"byteOffset":36280,
			"target":34962
		},
		{
			"buffer":0,
			"byteLength":1600,
			"byteOffset":37880,
			"target":34962
		},
		{
			"buffer":0,
			"byteLength":1800,
			"byteOffset":39480,
			"target":34963
		},
		{
			"buffer":0,
			"byteLength":120,
			"byteOffset":41280,
			"target":34962
		},
		{
			"buffer":0,
			"byteLength":120,
			"byteOffset":41400,
			"target":34962
		},
		{
			"buffer":0,
			"byteLength":80,
			"byteOffset":41520,
			"target":34962
		},
		{
			"buffer":0,
			"byteLength":80,
			"byteOffset":41600,
			"target":34962
		},
		{
			"buffer":0,
			"byteLength":80,
			"byteOffset":41680,
			"target":34962
		},
		{
			"buffer":0,
			"byteLength":48,
			"byteOffset":41760,
			"target":34963
		},
		{
			"buffer":0,
			"byteLength":52944,
			"byteOffset":41808,
			"target":34962
		},
		{
			"buffer":0,
			"byteLength":52944,
			"byteOffset":94752,
			"target":34962
		},
		{
			"buffer":0,
			"byteLength":35296,
			"byteOffset":147696,
			"target":34962
		},
		{
			"buffer":0,
			"byteLength":35296,
			"byteOffset":182992,
			"target":34962
		},
		{
			"buffer":0,
			"byteLength":35296,
			"byteOffset":218288,
			"target":34962
		},
		{
			"buffer":0,
			"byteLength":35296,
			"byteOffset":253584,
			"target":34962
		},
		{
			"buffer":0,
			"byteLength":35296,
			"byteOffset":288880,
			"target":34962
		},
		{
			"buffer":0,
			"byteLength":30444,
			"byteOffset":324176,
			"target":34963
		},
		{
			"buffer":0,
			"byteLength":8304,
			"byteOffset":354620,
			"target":34962
		},
		{
			"buffer":0,
			"byteLength":8304,
			"byteOffset":362924,
			"target":34962
		},
		{
			"buffer":0,
			"byteLength":5536,
			"byteOffset":371228,
			"target":34962
		},
		{
			"buffer":0,
			"byteLength":5536,
			"byteOffset":376764,
			"target":34962
		},
		{
			"buffer":0,
			"byteLength":5536,
			"byteOffset":382300,
			"target":34962
		},
		{
			"buffer":0,
			"byteLength":5536,
			"byteOffset":387836,
			"target":34962
		},
		{
			"buffer":0,
			"byteLength":5536,
			"byteOffset":393372,
			"target":34962
		},
		{
			"buffer":0,
			"byteLength":6570,
			"byteOffset":398908,
			"target":34963
		}
	],
	"samplers":[
		{
			"magFilter":9729,
			"minFilter":9987
		}
	],
	"buffers":[
		{
			"byteLength":405480,
			"uri":"Untitled-wheels7.bin"
		}
	]
}
